<svg width="327" height="185" viewBox="0 0 327 185" fill="none" xmlns="http://www.w3.org/2000/svg">
<g filter="url(#filter0_b_1639_10015)">
<g clip-path="url(#clip0_1639_10015)">
<rect x="-4" width="335" height="185" rx="20" fill="url(#paint0_linear_1639_10015)"/>
<path fill-rule="evenodd" clip-rule="evenodd" d="M20 0C8.95431 0 0 8.9543 0 20V165C0 176.046 8.95429 185 20 185H121.618C119.889 182.011 116.657 180 112.956 180H60.5665C57.8051 180 55.5665 177.761 55.5665 175C55.5665 172.239 57.8051 170 60.5665 170H88.1281C93.6509 170 98.1281 165.523 98.1281 160C98.1281 154.477 93.6509 150 88.1281 150H60.5665C57.8051 150 55.5665 147.761 55.5665 145C55.5665 142.239 57.8051 140 60.5665 140H192.167C197.69 140 202.167 135.523 202.167 130C202.167 124.477 197.69 120 192.167 120H60.5665C57.8051 120 55.5665 117.761 55.5665 115C55.5665 112.239 57.8051 110 60.5665 110H230C235.523 110 240 105.523 240 100C240 94.4771 235.523 90 230 90H60.5665C57.8051 90 55.5665 87.7614 55.5665 85C55.5665 82.2386 57.8051 80 60.5665 80H129.507C135.03 80 139.507 75.5229 139.507 70C139.507 64.4771 135.03 60 129.507 60H60.5665C57.8051 60 55.5665 57.7614 55.5665 55C55.5665 52.2386 57.8051 50 60.5665 50H168.522C174.045 50 178.522 45.5228 178.522 40C178.522 34.4772 174.045 30 168.522 30H60.5665C57.8051 30 55.5665 27.7614 55.5665 25C55.5665 22.2386 57.8051 20 60.5665 20H92.8572C98.38 20 102.857 15.5228 102.857 10C102.857 4.47715 98.38 0 92.8571 0H20Z" fill="white" fill-opacity="0.04"/>
<path d="M24.976 155L28.048 150.808L25.056 146.744H26.592L27.84 148.488L28.832 149.864H28.896L29.856 148.488L31.088 146.744H32.56L29.536 150.792L32.64 155H31.104L29.712 153.064L28.768 151.752H28.704L27.792 153.064L26.448 155H24.976ZM34.5698 155L37.6418 150.808L34.6497 146.744H36.1858L37.4338 148.488L38.4258 149.864H38.4898L39.4498 148.488L40.6818 146.744H42.1538L39.1298 150.792L42.2338 155H40.6978L39.3058 153.064L38.3618 151.752H38.2977L37.3858 153.064L36.0418 155H34.5698ZM44.1635 155L47.2355 150.808L44.2435 146.744H45.7795L47.0275 148.488L48.0195 149.864H48.0835L49.0435 148.488L50.2755 146.744H51.7475L48.7235 150.792L51.8275 155H50.2915L48.8995 153.064L47.9555 151.752H47.8915L46.9795 153.064L45.6355 155H44.1635ZM53.7573 155L56.8293 150.808L53.8372 146.744H55.3733L56.6213 148.488L57.6133 149.864H57.6773L58.6373 148.488L59.8693 146.744H61.3413L58.3173 150.792L61.4213 155H59.8853L58.4933 153.064L57.5493 151.752H57.4852L56.5733 153.064L55.2293 155H53.7573ZM74.4488 150.808V149.464H79.0888V150.808H74.4488ZM92.1323 155L95.2043 150.808L92.2122 146.744H93.7483L94.9963 148.488L95.9883 149.864H96.0523L97.0123 148.488L98.2443 146.744H99.7163L96.6923 150.792L99.7963 155H98.2603L96.8683 153.064L95.9243 151.752H95.8602L94.9483 153.064L93.6043 155H92.1323ZM101.726 155L104.798 150.808L101.806 146.744H103.342L104.59 148.488L105.582 149.864H105.646L106.606 148.488L107.838 146.744H109.31L106.286 150.792L109.39 155H107.854L106.462 153.064L105.518 151.752H105.454L104.542 153.064L103.198 155H101.726ZM111.32 155L114.392 150.808L111.4 146.744H112.936L114.184 148.488L115.176 149.864H115.24L116.2 148.488L117.432 146.744H118.904L115.88 150.792L118.984 155H117.448L116.056 153.064L115.112 151.752H115.048L114.136 153.064L112.792 155H111.32ZM120.914 155L123.986 150.808L120.993 146.744H122.53L123.778 148.488L124.77 149.864H124.834L125.794 148.488L127.026 146.744H128.498L125.474 150.792L128.578 155H127.042L125.65 153.064L124.706 151.752H124.641L123.73 153.064L122.386 155H120.914ZM141.605 150.808V149.464H146.245V150.808H141.605ZM159.289 155L162.361 150.808L159.368 146.744H160.905L162.153 148.488L163.145 149.864H163.209L164.169 148.488L165.401 146.744H166.873L163.849 150.792L166.953 155H165.417L164.025 153.064L163.081 151.752H163.016L162.105 153.064L160.761 155H159.289ZM168.882 155L171.954 150.808L168.962 146.744H170.498L171.746 148.488L172.738 149.864H172.802L173.762 148.488L174.994 146.744H176.466L173.442 150.792L176.546 155H175.01L173.618 153.064L172.674 151.752H172.61L171.698 153.064L170.354 155H168.882ZM178.476 155L181.548 150.808L178.556 146.744H180.092L181.34 148.488L182.332 149.864H182.396L183.356 148.488L184.588 146.744H186.06L183.036 150.792L186.14 155H184.604L183.212 153.064L182.268 151.752H182.204L181.292 153.064L179.948 155H178.476ZM188.07 155L191.142 150.808L188.15 146.744H189.686L190.934 148.488L191.926 149.864H191.99L192.95 148.488L194.182 146.744H195.654L192.63 150.792L195.734 155H194.198L192.806 153.064L191.862 151.752H191.798L190.886 153.064L189.542 155H188.07ZM208.761 150.808V149.464H213.401V150.808H208.761ZM226.445 155L229.517 150.808L226.525 146.744H228.061L229.309 148.488L230.301 149.864H230.365L231.325 148.488L232.557 146.744H234.029L231.005 150.792L234.109 155H232.573L231.181 153.064L230.237 151.752H230.173L229.261 153.064L227.917 155H226.445ZM236.039 155L239.111 150.808L236.118 146.744H237.655L238.903 148.488L239.895 149.864H239.959L240.919 148.488L242.151 146.744H243.623L240.599 150.792L243.703 155H242.167L240.775 153.064L239.831 151.752H239.766L238.855 153.064L237.511 155H236.039ZM245.632 155L248.704 150.808L245.712 146.744H247.248L248.496 148.488L249.488 149.864H249.552L250.512 148.488L251.744 146.744H253.216L250.192 150.792L253.296 155H251.76L250.368 153.064L249.424 151.752H249.36L248.448 153.064L247.104 155H245.632ZM255.226 155L258.298 150.808L255.306 146.744H256.842L258.09 148.488L259.082 149.864H259.146L260.106 148.488L261.338 146.744H262.81L259.786 150.792L262.89 155H261.354L259.962 153.064L259.018 151.752H258.954L258.042 153.064L256.698 155H255.226Z" fill="white"/>
<path d="M26.48 126.808V125.464H31.12V126.808H26.48ZM36.0738 126.808V125.464H40.7138V126.808H36.0738ZM45.6675 126.808V125.464H50.3075V126.808H45.6675ZM55.2613 126.808V125.464H59.9013V126.808H55.2613ZM64.855 126.808V125.464H69.495V126.808H64.855ZM74.4488 126.808V125.464H79.0888V126.808H74.4488ZM84.0425 126.808V125.464H88.6825V126.808H84.0425ZM93.6363 126.808V125.464H98.2763V126.808H93.6363Z" fill="white"/>
<path opacity="0.9" d="M34.48 40.448C34.48 41.408 34.3307 42.2453 34.032 42.96C33.7333 43.664 33.312 44.2507 32.768 44.72C32.224 45.1787 31.5733 45.5253 30.816 45.76C30.0587 45.984 29.2267 46.096 28.32 46.096C27.872 46.096 27.376 46.0747 26.832 46.032C26.2987 46 25.8133 45.9307 25.376 45.824V35.072C25.8133 34.9653 26.2987 34.896 26.832 34.864C27.376 34.8213 27.872 34.8 28.32 34.8C29.2267 34.8 30.0587 34.9173 30.816 35.152C31.5733 35.376 32.224 35.7227 32.768 36.192C33.312 36.6507 33.7333 37.2373 34.032 37.952C34.3307 38.656 34.48 39.488 34.48 40.448ZM28.448 44.736C29.92 44.736 31.0187 44.3627 31.744 43.616C32.4693 42.8587 32.832 41.8027 32.832 40.448C32.832 39.0933 32.4693 38.0427 31.744 37.296C31.0187 36.5387 29.92 36.16 28.448 36.16C28.0107 36.16 27.6693 36.1653 27.424 36.176C27.1893 36.1867 27.024 36.1973 26.928 36.208V44.688C27.024 44.6987 27.1893 44.7093 27.424 44.72C27.6693 44.7307 28.0107 44.736 28.448 44.736ZM36.2223 41.856C36.2223 41.12 36.3289 40.48 36.5423 39.936C36.7556 39.3813 37.0383 38.9227 37.3903 38.56C37.7423 38.1973 38.1476 37.9253 38.6063 37.744C39.0649 37.5627 39.5343 37.472 40.0143 37.472C41.1343 37.472 41.9929 37.824 42.5903 38.528C43.1876 39.2213 43.4862 40.2827 43.4862 41.712C43.4862 41.776 43.4862 41.8613 43.4862 41.968C43.4862 42.064 43.4809 42.1547 43.4703 42.24H37.7743C37.8383 43.104 38.0889 43.76 38.5263 44.208C38.9636 44.656 39.6463 44.88 40.5743 44.88C41.0969 44.88 41.5343 44.8373 41.8863 44.752C42.2489 44.656 42.5209 44.5653 42.7023 44.48L42.9103 45.728C42.7289 45.824 42.4089 45.9253 41.9503 46.032C41.5023 46.1387 40.9903 46.192 40.4143 46.192C39.6889 46.192 39.0596 46.0853 38.5263 45.872C38.0036 45.648 37.5716 45.344 37.2303 44.96C36.8889 44.576 36.6329 44.1227 36.4622 43.6C36.3023 43.0667 36.2223 42.4853 36.2223 41.856ZM41.9343 41.04C41.9449 40.368 41.7743 39.8187 41.4223 39.392C41.0809 38.9547 40.6063 38.736 39.9983 38.736C39.6569 38.736 39.3529 38.8053 39.0863 38.944C38.8303 39.072 38.6116 39.2427 38.4303 39.456C38.2489 39.6693 38.1049 39.9147 37.9983 40.192C37.9023 40.4693 37.8383 40.752 37.8063 41.04H41.9343ZM47.1118 38.048C47.2931 37.9307 47.5651 37.808 47.9278 37.68C48.3011 37.552 48.7278 37.488 49.2078 37.488C49.8051 37.488 50.3331 37.5947 50.7918 37.808C51.2611 38.0213 51.6558 38.32 51.9758 38.704C52.2958 39.088 52.5358 39.5467 52.6958 40.08C52.8664 40.6133 52.9518 41.2 52.9518 41.84C52.9518 42.512 52.8504 43.12 52.6478 43.664C52.4558 44.1973 52.1784 44.6507 51.8158 45.024C51.4531 45.3973 51.0158 45.6853 50.5038 45.888C49.9918 46.0907 49.4158 46.192 48.7758 46.192C48.0824 46.192 47.4691 46.144 46.9358 46.048C46.4024 45.952 45.9651 45.856 45.6238 45.76V33.84L47.1118 33.584V38.048ZM47.1118 44.704C47.2611 44.7467 47.4691 44.7893 47.7358 44.832C48.0131 44.864 48.3544 44.88 48.7598 44.88C49.5598 44.88 50.1998 44.6187 50.6798 44.096C51.1598 43.5627 51.3998 42.8107 51.3998 41.84C51.3998 41.4133 51.3571 41.0133 51.2718 40.64C51.1864 40.2667 51.0478 39.9467 50.8558 39.68C50.6638 39.4027 50.4131 39.1893 50.1038 39.04C49.8051 38.88 49.4424 38.8 49.0158 38.8C48.6104 38.8 48.2371 38.8693 47.8958 39.008C47.5544 39.1467 47.2931 39.2907 47.1118 39.44V44.704ZM56.5336 46H55.0456V37.68H56.5336V46ZM55.7816 36.176C55.515 36.176 55.2856 36.0907 55.0936 35.92C54.9123 35.7387 54.8216 35.4987 54.8216 35.2C54.8216 34.9013 54.9123 34.6667 55.0936 34.496C55.2856 34.3147 55.515 34.224 55.7816 34.224C56.0483 34.224 56.2723 34.3147 56.4536 34.496C56.6456 34.6667 56.7416 34.9013 56.7416 35.2C56.7416 35.4987 56.6456 35.7387 56.4536 35.92C56.2723 36.0907 56.0483 36.176 55.7816 36.176ZM60.4845 37.68H63.6365V38.928H60.4845V42.768C60.4845 43.184 60.5165 43.5307 60.5805 43.808C60.6445 44.0747 60.7405 44.288 60.8685 44.448C60.9965 44.5973 61.1565 44.704 61.3485 44.768C61.5405 44.832 61.7645 44.864 62.0205 44.864C62.4685 44.864 62.8258 44.816 63.0925 44.72C63.3698 44.6133 63.5618 44.5387 63.6685 44.496L63.9565 45.728C63.8072 45.8027 63.5458 45.8933 63.1725 46C62.7992 46.1173 62.3725 46.176 61.8925 46.176C61.3272 46.176 60.8578 46.1067 60.4845 45.968C60.1218 45.8187 59.8285 45.6 59.6045 45.312C59.3805 45.024 59.2205 44.672 59.1245 44.256C59.0392 43.8293 58.9965 43.3387 58.9965 42.784V35.36L60.4845 35.104V37.68ZM65.386 48.96H63.866L69.29 33.472H70.778L65.386 48.96ZM76.0971 46.24C75.3185 46.24 74.6091 46.112 73.9691 45.856C73.3291 45.6 72.7798 45.2267 72.3211 44.736C71.8625 44.2453 71.5051 43.6427 71.2491 42.928C71.0038 42.2027 70.8811 41.376 70.8811 40.448C70.8811 39.52 71.0198 38.6987 71.2971 37.984C71.5851 37.2587 71.9691 36.6507 72.4491 36.16C72.9291 35.6693 73.4891 35.296 74.1291 35.04C74.7691 34.784 75.4518 34.656 76.1771 34.656C76.6358 34.656 77.0465 34.688 77.4091 34.752C77.7825 34.816 78.1025 34.8907 78.3691 34.976C78.6465 35.0613 78.8705 35.1467 79.0411 35.232C79.2118 35.3173 79.3291 35.3813 79.3931 35.424L78.9451 36.704C78.8491 36.64 78.7105 36.5707 78.5291 36.496C78.3478 36.4213 78.1398 36.3467 77.9051 36.272C77.6811 36.1973 77.4305 36.1387 77.1531 36.096C76.8865 36.0427 76.6145 36.016 76.3371 36.016C75.7505 36.016 75.2225 36.1173 74.7531 36.32C74.2838 36.5227 73.8838 36.816 73.5531 37.2C73.2225 37.584 72.9665 38.0533 72.7851 38.608C72.6145 39.152 72.5291 39.7653 72.5291 40.448C72.5291 41.1093 72.6038 41.712 72.7531 42.256C72.9131 42.8 73.1478 43.2693 73.4571 43.664C73.7665 44.048 74.1505 44.3467 74.6091 44.56C75.0785 44.7733 75.6225 44.88 76.2411 44.88C76.9558 44.88 77.5478 44.8053 78.0171 44.656C78.4865 44.5067 78.8385 44.3733 79.0731 44.256L79.4731 45.536C79.3985 45.5893 79.2651 45.6587 79.0731 45.744C78.8811 45.8187 78.6411 45.8933 78.3531 45.968C78.0651 46.0427 77.7291 46.1067 77.3451 46.16C76.9611 46.2133 76.5451 46.24 76.0971 46.24ZM84.227 37.504C84.355 37.504 84.499 37.5147 84.659 37.536C84.8297 37.5467 84.995 37.568 85.155 37.6C85.315 37.6213 85.459 37.648 85.587 37.68C85.7257 37.7013 85.827 37.7227 85.891 37.744L85.635 39.04C85.5177 38.9973 85.3203 38.9493 85.043 38.896C84.7763 38.832 84.4297 38.8 84.003 38.8C83.7257 38.8 83.4483 38.832 83.171 38.896C82.9043 38.9493 82.7283 38.9867 82.643 39.008V46H81.155V38.032C81.507 37.904 81.9443 37.7867 82.467 37.68C82.9897 37.5627 83.5763 37.504 84.227 37.504ZM86.8629 41.856C86.8629 41.12 86.9695 40.48 87.1829 39.936C87.3962 39.3813 87.6789 38.9227 88.0309 38.56C88.3829 38.1973 88.7882 37.9253 89.2469 37.744C89.7055 37.5627 90.1749 37.472 90.6549 37.472C91.7749 37.472 92.6335 37.824 93.2309 38.528C93.8282 39.2213 94.1269 40.2827 94.1269 41.712C94.1269 41.776 94.1269 41.8613 94.1269 41.968C94.1269 42.064 94.1215 42.1547 94.1109 42.24H88.4149C88.4789 43.104 88.7295 43.76 89.1669 44.208C89.6042 44.656 90.2869 44.88 91.2149 44.88C91.7375 44.88 92.1749 44.8373 92.5269 44.752C92.8895 44.656 93.1615 44.5653 93.3429 44.48L93.5509 45.728C93.3695 45.824 93.0495 45.9253 92.5909 46.032C92.1429 46.1387 91.6309 46.192 91.0549 46.192C90.3295 46.192 89.7002 46.0853 89.1669 45.872C88.6442 45.648 88.2122 45.344 87.8709 44.96C87.5295 44.576 87.2735 44.1227 87.1029 43.6C86.9429 43.0667 86.8629 42.4853 86.8629 41.856ZM92.5749 41.04C92.5855 40.368 92.4149 39.8187 92.0629 39.392C91.7215 38.9547 91.2469 38.736 90.6389 38.736C90.2975 38.736 89.9935 38.8053 89.7269 38.944C89.4709 39.072 89.2522 39.2427 89.0709 39.456C88.8895 39.6693 88.7455 39.9147 88.6389 40.192C88.5429 40.4693 88.4789 40.752 88.4469 41.04H92.5749ZM101.64 39.44C101.459 39.2907 101.198 39.1467 100.856 39.008C100.515 38.8693 100.142 38.8 99.7364 38.8C99.3097 38.8 98.9417 38.88 98.6324 39.04C98.3337 39.1893 98.0884 39.4027 97.8964 39.68C97.7044 39.9467 97.5657 40.2667 97.4804 40.64C97.395 41.0133 97.3524 41.4133 97.3524 41.84C97.3524 42.8107 97.5924 43.5627 98.0724 44.096C98.5524 44.6187 99.1924 44.88 99.9924 44.88C100.398 44.88 100.734 44.864 101 44.832C101.278 44.7893 101.491 44.7467 101.64 44.704V39.44ZM101.64 33.84L103.128 33.584V45.76C102.787 45.856 102.35 45.952 101.816 46.048C101.283 46.144 100.67 46.192 99.9764 46.192C99.3364 46.192 98.7604 46.0907 98.2484 45.888C97.7364 45.6853 97.299 45.3973 96.9364 45.024C96.5737 44.6507 96.291 44.1973 96.0884 43.664C95.8964 43.12 95.8004 42.512 95.8004 41.84C95.8004 41.2 95.8804 40.6133 96.0404 40.08C96.211 39.5467 96.4564 39.088 96.7764 38.704C97.0964 38.32 97.4857 38.0213 97.9444 37.808C98.4137 37.5947 98.947 37.488 99.5444 37.488C100.024 37.488 100.446 37.552 100.808 37.68C101.182 37.808 101.459 37.9307 101.64 38.048V33.84ZM107.174 46H105.686V37.68H107.174V46ZM106.422 36.176C106.156 36.176 105.926 36.0907 105.734 35.92C105.553 35.7387 105.462 35.4987 105.462 35.2C105.462 34.9013 105.553 34.6667 105.734 34.496C105.926 34.3147 106.156 34.224 106.422 34.224C106.689 34.224 106.913 34.3147 107.094 34.496C107.286 34.6667 107.382 34.9013 107.382 35.2C107.382 35.4987 107.286 35.7387 107.094 35.92C106.913 36.0907 106.689 36.176 106.422 36.176ZM111.125 37.68H114.277V38.928H111.125V42.768C111.125 43.184 111.157 43.5307 111.221 43.808C111.285 44.0747 111.381 44.288 111.509 44.448C111.637 44.5973 111.797 44.704 111.989 44.768C112.181 44.832 112.405 44.864 112.661 44.864C113.109 44.864 113.466 44.816 113.733 44.72C114.01 44.6133 114.202 44.5387 114.309 44.496L114.597 45.728C114.448 45.8027 114.186 45.8933 113.813 46C113.44 46.1173 113.013 46.176 112.533 46.176C111.968 46.176 111.498 46.1067 111.125 45.968C110.762 45.8187 110.469 45.6 110.245 45.312C110.021 45.024 109.861 44.672 109.765 44.256C109.68 43.8293 109.637 43.3387 109.637 42.784V35.36L111.125 35.104V37.68Z" fill="white"/>
</g>
</g>
<defs>
<filter id="filter0_b_1639_10015" x="-80" y="-80" width="487" height="345" filterUnits="userSpaceOnUse" color-interpolation-filters="sRGB">
<feFlood flood-opacity="0" result="BackgroundImageFix"/>
<feGaussianBlur in="BackgroundImageFix" stdDeviation="40"/>
<feComposite in2="SourceAlpha" operator="in" result="effect1_backgroundBlur_1639_10015"/>
<feBlend mode="normal" in="SourceGraphic" in2="effect1_backgroundBlur_1639_10015" result="shape"/>
</filter>
<linearGradient id="paint0_linear_1639_10015" x1="-52" y1="-20" x2="378" y2="205.5" gradientUnits="userSpaceOnUse">
<stop offset="0.122247" stop-color="#064A7D"/>
<stop offset="0.878935" stop-color="#642401"/>
</linearGradient>
<clipPath id="clip0_1639_10015">
<rect width="327" height="185" rx="20" fill="white"/>
</clipPath>
</defs>
</svg>
